<svg height="512" viewBox="0 0 64 64" width="512" xmlns="http://www.w3.org/2000/svg"><path d="m32 2a18 18 0 0 0 -15.882 26.471.579.579 0 0 0 .031.054c.393.719 1.239 1.948 2.3 3.493.972 1.412 2.169 3.153 3.322 4.95l3.009 15.032h-.78a1 1 0 0 0 -.97 1.242l2 8a1 1 0 0 0 .97.758h12a1 1 0 0 0 .97-.758l2-8a1 1 0 0 0 -.97-1.242h-.78l3.006-15.032c1.153-1.8 2.35-3.538 3.322-4.95 1.073-1.558 1.924-2.793 2.313-3.51.014-.025.027-.049.039-.074a18 18 0 0 0 -15.9-26.434zm1 22h9.78l-2.443 12.214c-2.178 3.421-3.837 6.498-4.237 8.786h-3.1zm-2 21h-3.095c-.4-2.288-2.064-5.365-4.242-8.786l-2.443-12.214h9.78zm-14.872-23a15.88 15.88 0 0 1 .206-5.252l2.959 2.959a1 1 0 0 0 1.414 0l5.293-5.293 5.293 5.293a1 1 0 0 0 1.414 0l5.293-5.293 5.293 5.293a1 1 0 0 0 1.414 0l2.959-2.959a15.88 15.88 0 0 1 .206 5.252zm28.342-12a16.1 16.1 0 0 1 1.365 2h-27.67a16.1 16.1 0 0 1 1.365-2zm2.557 4.559-3.027 3.027-3.586-3.586h6.408c.078.183.137.372.205.559zm-11.441-.559-3.586 3.586-3.586-3.586zm-12 0-3.586 3.586-3.027-3.027c.068-.187.131-.376.205-.559zm18.961-6h-21.094a15.9 15.9 0 0 1 21.094 0zm-22.447 22.883c-1.008-1.463-1.878-2.728-2.209-3.343l-.006-.012a15.9 15.9 0 0 1 -1.372-3.528h2.667l1.565 7.824q-.321-.47-.645-.941zm4.808 11.557a9.411 9.411 0 0 1 1.092 3.56 1 1 0 0 0 1 1h4v5h-4.18zm13.811 11.56-.5 2h-12.438l-.5-2zm-11.938 6-.5-2h11.438l-.5 2zm10.4-8h-4.181v-5h4a1 1 0 0 0 1-1 9.411 9.411 0 0 1 1.092-3.56zm8.935-24.469c-.328.613-1.2 1.882-2.214 3.352q-.326.473-.646.941l1.564-7.824h2.667a15.9 15.9 0 0 1 -1.371 3.528z"/><path d="m38 26h2v2h-2z"/><path d="m35 29h2v2h-2z"/></svg>