<svg height="512pt" viewBox="0 0 512 512" width="512pt" xmlns="http://www.w3.org/2000/svg"><path d="m145.859375 211.792969c5.511719 0 9.988281-4.476563 9.988281-9.988281 0-5.046876-3.757812-9.234376-8.621094-9.890626-5.8125-.90625-11.359374 3.734376-11.359374 9.890626 0 5.527343 4.488281 9.988281 9.992187 9.988281zm0 0"/><path d="m66.035156 59.246094 23.664063 11.828125 11.828125 23.664062c1.691406 3.386719 5.152344 5.523438 8.933594 5.523438h.003906c3.78125 0 7.238281-2.136719 8.933594-5.519531l11.835937-23.667969 23.65625-11.828125c3.386719-1.691406 5.523437-5.152344 5.523437-8.933594 0-3.785156-2.136718-7.242188-5.523437-8.9375l-23.628906-11.816406-11.839844-23.988282c-1.683594-3.410156-5.15625-5.570312-8.960937-5.570312-3.804688 0-7.277344 2.160156-8.960938 5.570312l-11.828125 23.988282-23.636719 11.816406c-3.386718 1.691406-5.523437 5.152344-5.523437 8.9375 0 3.78125 2.136719 7.242188 5.523437 8.933594zm35.578125-13.316406c1.949219-.972657 3.527344-2.5625 4.492188-4.515626l4.359375-8.84375 4.363281 8.84375c.964844 1.957032 2.542969 3.542969 4.492187 4.515626l8.761719 4.382812-8.761719 4.382812c-1.933593.964844-3.5 2.53125-4.464843 4.464844l-4.390625 8.773438-4.382813-8.769532c-.96875-1.9375-2.539062-3.503906-4.472656-4.46875l-8.765625-4.382812zm0 0"/><path d="m378.96875 78.699219 40.21875 13.40625 13.402344 40.21875c1.359375 4.078125 5.179687 6.828125 9.476562 6.828125 4.300782 0 8.121094-2.75 9.480469-6.828125l13.402344-40.21875 40.21875-13.40625c4.082031-1.359375 6.832031-5.175781 6.832031-9.476563 0-4.300781-2.75-8.117187-6.832031-9.476562l-40.246094-13.417969-13.390625-39.542969c-1.375-4.054687-5.179688-6.785156-9.464844-6.785156-4.28125 0-8.085937 2.730469-9.460937 6.785156l-13.390625 39.542969-40.246094 13.417969c-4.082031 1.359375-6.832031 5.175781-6.832031 9.476562 0 4.300782 2.75 8.117188 6.832031 9.476563zm51.273438-14.984375c2.964843-.988282 5.300781-3.3125 6.304687-6.273438l5.519531-16.308594 5.523438 16.308594c1.003906 2.960938 3.335937 5.285156 6.304687 6.273438l16.523438 5.507812-16.523438 5.507813c-2.984375.992187-5.324219 3.335937-6.320312 6.320312l-5.507813 16.523438-5.503906-16.523438c-.996094-2.984375-3.335938-5.328125-6.320312-6.320312l-16.523438-5.507813zm0 0"/><path d="m45.957031 301.707031c0 116.074219 94.195313 209.792969 209.792969 209.792969.742188 0 1.496094 0 2.238281-.019531 114.503907-1.179688 207.558594-94.402344 207.558594-209.773438 0-98.476562-67.910156-181.332031-159.84375-203.792969v-21.988281c0-16.527343-13.445313-29.96875-29.972656-29.96875h-9.988281v-35.964843c0-5.519532-4.476563-9.992188-9.992188-9.992188s-9.988281 4.472656-9.988281 9.992188v35.964843h-9.992188c-16.527343 0-29.96875 13.441407-29.96875 29.96875v21.988281c-91.945312 22.460938-159.84375 105.328126-159.84375 203.792969zm20.265625 9.988281h49.820313c.867187 28.03125 5.386719 55.097657 13.191406 79.921876h-40.683594c-13.238281-24.574219-20.855469-51.921876-22.328125-79.921876zm34.765625 99.902344h35.433594c9.152344 22.402344 21.921875 44.109375 38.503906 61.730469-29.21875-13.785156-54.839843-34.917969-73.9375-61.730469zm35.046875-99.902344h59.84375c.34375 27.792969 2.109375 55.042969 5.1875 79.921876h-50.824218c-8.40625-24.476563-13.277344-51.628907-14.207032-79.921876zm22.125 99.902344h45.753906c3.710938 22.933594 10.175782 52.570313 20.582032 73.347656-30.585938-13.148437-52.695313-43.261718-66.335938-73.347656zm132.128906-199.804687c3.171876 24.734375 5 52.019531 5.351563 79.921875h-79.78125c.351563-27.902344 2.179687-55.1875 5.351563-79.921875zm-66.132812-19.980469c10.097656-60.078125 25.394531-79.921875 31.59375-79.921875 6.203125 0 21.496094 19.847656 31.59375 79.921875zm71.484375 119.882812c-.351563 27.902344-2.179687 55.1875-5.351563 79.921876h-69.078124c-3.171876-24.734376-5-52.019532-5.351563-79.921876zm-39.890625 179.824219c-6.199219 0-21.496094-19.855469-31.59375-79.929687h63.1875c-10.097656 60.074218-25.390625 79.929687-31.59375 79.929687zm31.042969-6.152343c10.539062-20.816407 17.070312-50.761719 20.792969-73.777344h44.917968c-13.523437 30.472656-35.027344 61.066406-65.710937 73.777344zm28.828125-193.652344c-.34375-27.792969-2.109375-55.042969-5.1875-79.921875h50.523437c8.480469 24.738281 13.515625 52.144531 14.492188 79.921875zm59.804687 19.980468c-1.070312 26.882813-6.382812 54.664063-15.085937 79.921876h-49.90625c3.078125-24.878907 4.847656-52.128907 5.191406-79.921876zm-38.609375 161.492188c16.148438-17.625 28.394532-39.34375 37.367188-61.597656h36.328125c-19.027344 26.691406-44.574219 47.796875-73.695313 61.597656zm86.132813-81.570312h-41.589844c8.132813-25.582032 13.0625-53.207032 14.058594-79.929688h49.859375c-1.472656 28-9.089844 55.355469-22.328125 79.929688zm22.328125-99.902344h-49.832032c-.910156-27.542969-5.578124-54.835938-13.476562-79.921875h40.980469c13.238281 24.574219 20.855469 51.921875 22.328125 79.921875zm-34.757813-99.902344h-35.726562c-9.066407-22.367188-21.632813-44.171875-38.363281-61.976562 29.4375 13.835937 55.019531 35.144531 74.089843 61.976562zm-57.425781 0h-45.507812c-3.699219-22.878906-10.175782-52.609375-20.617188-73.417969 30.613281 13.058594 52.496094 43.050781 66.125 73.417969zm-127.3125-115.886719c0-5.507812 4.480469-9.988281 9.988281-9.988281h39.960938c5.507812 0 9.992187 4.480469 9.992187 9.988281v18.128907c-19.527344-2.792969-39.582031-2.90625-59.941406 0zm-50.3125 53.730469c-8.335938 8.753906-16.058594 18.859375-22.875 29.996094-2.882812 4.707031-1.402344 10.859375 3.304688 13.738281 4.707031 2.878906 10.855468 1.398437 13.734374-3.308594 13.042969-21.3125 31.632813-41.671875 54.894532-51.671875-10.429688 20.789063-16.90625 50.492188-20.613282 73.402344h-18.09375c-5.519531 0-9.992187 4.472656-9.992187 9.992188 0 5.515624 4.472656 9.980468 9.992187 9.980468h15.246094c-3.078125 24.878906-4.847656 52.136719-5.191406 79.929688h-59.839844c.546875-16.460938 2.476563-32.378906 6.070313-50.347656 1.082031-5.410157-2.425781-10.671876-7.835938-11.753907-5.410156-1.082031-10.671875 2.425781-11.757812 7.835938-3.867188 19.332031-5.917969 36.460937-6.46875 54.265625h-49.820313c1.472656-28 9.089844-55.347656 22.328125-79.921875h17.347657c5.515624 0 9.988281-4.472657 9.988281-9.988281 0-5.519532-4.472657-9.992188-9.988281-9.992188h-4.917969c19.152343-26.953125 44.882812-48.328125 74.488281-62.15625zm0 0"/><path d="m9.992188 141.863281h9.988281v9.988281c0 5.519532 4.472656 9.992188 9.992187 9.992188 5.515625 0 9.988282-4.472656 9.988282-9.992188v-9.988281h9.992187c5.515625 0 9.988281-4.472656 9.988281-9.992187 0-5.515625-4.472656-9.988282-9.988281-9.988282h-9.992187v-9.992187c0-5.515625-4.472657-9.988281-9.988282-9.988281-5.519531 0-9.992187 4.472656-9.992187 9.988281v9.992187h-9.988281c-5.519532 0-9.992188 4.472657-9.992188 9.988282 0 5.519531 4.472656 9.992187 9.992188 9.992187zm0 0"/></svg>