<svg height="512" viewBox="0 0 512 512" width="512" xmlns="http://www.w3.org/2000/svg"><path d="m438.656 291.562-14.871-22.306a176.731 176.731 0 0 0 0-106.512l14.871-22.306a8 8 0 0 0 0-8.876l-16-24a8 8 0 0 0 -6.656-3.562h-24.229a175.82 175.82 0 0 0 -96.647-59.628 7.988 7.988 0 0 0 -.456-.788l-.012-.022-.01-.015-.023-.034-15.967-23.951a8 8 0 0 0 -6.656-3.562h-32a8 8 0 0 0 -6.656 3.562l-15.967 23.951-.023.034-.01.015-.012.022a7.988 7.988 0 0 0 -.456.788 175.82 175.82 0 0 0 -96.647 59.628h-24.229a8 8 0 0 0 -6.656 3.562l-16 24a8 8 0 0 0 0 8.876l14.871 22.306a176.731 176.731 0 0 0 0 106.512l-14.871 22.306a8 8 0 0 0 0 8.876l16 24a8 8 0 0 0 6.656 3.562h24.231a175.814 175.814 0 0 0 41.829 36.843l-47.418 115.157h-10.642a8 8 0 0 0 0 16h15.957.04.027 15.976a8 8 0 0 0 0-16h-4.054l13.176-32h102.878v32h-8a8 8 0 0 0 0 16h32a8 8 0 0 0 0-16h-8v-32h102.878l13.176 32h-4.054a8 8 0 0 0 0 16h15.976.027.04 15.957a8 8 0 0 0 0-16h-10.642l-47.418-115.157a175.814 175.814 0 0 0 41.829-36.843h24.231a8 8 0 0 0 6.656-3.562l16-24a8 8 0 0 0 0-8.876zm-120.056-2.837-6.234-15.14 17 4.261a96.739 96.739 0 0 1 -10.766 10.879zm-74.319 111.275-5.333-8h34.1l-5.333 8zm-61.641-122.154 17-4.261-6.234 15.14a96.824 96.824 0 0 1 -10.766-10.879zm61.641-213.846-5.333-8h34.1l-5.333 8zm167.438 88h-23.438l-5.333-8h34.1zm-59.719 64a95.558 95.558 0 0 1 -5.72 32.65l-31.609-32.65 31.609-32.65a95.558 95.558 0 0 1 5.72 32.65zm-84.281 152 5.333 8h-34.1l5.333-8zm-107.719-152a95.558 95.558 0 0 1 5.72-32.65l31.609 32.65-31.609 32.65a95.558 95.558 0 0 1 -5.72-32.65zm137.789 5.564 20.462 21.136-24.409-14.095-5.887-14.3a31.844 31.844 0 0 0 -1.126-6.863l31.422-18.142-20.462 21.137a8 8 0 0 0 0 11.127zm-41.789 10.436a16 16 0 1 1 16-16 16.019 16.019 0 0 1 -16 16zm-41.789-21.564-20.462-21.136 31.422 18.145a31.844 31.844 0 0 0 -1.126 6.863l-5.887 14.3-24.409 14.1 20.462-21.137a8 8 0 0 0 0-11.135zm64.607-16.836a31.992 31.992 0 0 0 -14.818-8.587v-36.28l8.075 28.295a8 8 0 0 0 9.638 5.564l28.549-7.156zm-30.818-8.587a31.992 31.992 0 0 0 -14.818 8.582l-31.444-18.159 28.549 7.156a8 8 0 0 0 9.638-5.564l8.075-28.295zm-39.823 67.832-.967 2.347-5.472 1.372zm22.7-13.109 2.3-1.331a31.992 31.992 0 0 0 14.823 8.582v36.28l-8.075-28.295a7.991 7.991 0 0 0 -9.638-5.564l-3.782.948zm33.123 43.531v-36.28a31.992 31.992 0 0 0 14.818-8.582l2.3 1.331 4.373 10.62-3.782-.948a8 8 0 0 0 -9.638 5.564zm39.823-30.422 6.439 3.719-5.472-1.372zm-18.488-87.656-12.473-43.7a96.027 96.027 0 0 1 56.5 32.67zm-58.67 0-44.025-11.035a96.027 96.027 0 0 1 56.5-32.67zm-102.946-13.189h-23.438l-5.333-8h34.1zm-23.438 128h23.438l5.333 8h-34.1zm38.834-5.749-4.459-6.689a8 8 0 0 0 -6.656-3.562h-24.668a160.785 160.785 0 0 1 0-96h24.668a8 8 0 0 0 6.656-3.562l4.459-6.689 4.129 2.384 10.3 10.643a111.886 111.886 0 0 0 0 90.448l-10.3 10.643zm79.817-5.5 7.733-1.938 12.473 43.705a95.337 95.337 0 0 1 -32.4-12.151zm25.01 58.6 4.058 14.219v10.43h-8a8 8 0 0 0 -6.656 3.562l-11.223 16.838a158.269 158.269 0 0 1 -39.936-14.407l18.4-44.688a111.173 111.173 0 0 0 43.357 14.044zm45.937 45.049-11.223-16.835a8 8 0 0 0 -6.656-3.565h-8v-10.43l4.058-14.221a111.173 111.173 0 0 0 43.356-14.049l18.4 44.688a158.282 158.282 0 0 1 -39.935 14.412zm-17.017-61.881 12.473-43.705 7.733 1.938 12.195 29.616a95.337 95.337 0 0 1 -32.401 12.148zm85.591-49.292a111.886 111.886 0 0 0 0-90.448l10.3-10.643 4.129-2.384 4.459 6.689a8 8 0 0 0 6.659 3.559h24.668a160.785 160.785 0 0 1 0 96h-24.668a8 8 0 0 0 -6.656 3.562l-4.459 6.689-4.129-2.384zm29.828 18.773h23.438l5.333 8h-34.1zm28.771-152h-34.1l5.333-8h23.438zm-41.28-18.08-14.428 21.642a8 8 0 0 0 0 8.876l2.647 3.971-3.258 1.881-14.382 3.61a112.03 112.03 0 0 0 -78.293-45.244l-4.058-14.226v-10.43h8a8 8 0 0 0 6.656-3.562l11.222-16.833a159.722 159.722 0 0 1 85.894 50.315zm-131.491-77.92h23.438l5.333 8h-34.1zm-22.159 27.6 11.222 16.833a8 8 0 0 0 6.656 3.567h8v10.43l-4.058 14.221a112.03 112.03 0 0 0 -78.293 45.249l-14.382-3.605-3.258-1.881 2.647-3.971a8 8 0 0 0 0-8.876l-14.428-21.647a159.709 159.709 0 0 1 85.894-50.315zm-121.841 60.4h23.438l5.333 8h-34.1zm-5.333 184h34.1l-5.333 8h-23.434zm41.279 18.081 14.429-21.643a8 8 0 0 0 0-8.876l-2.647-3.971 3.258-1.881 14.382-3.6a112.933 112.933 0 0 0 21.386 22.084l-18.781 45.606a159.757 159.757 0 0 1 -32.027-27.719zm15.483 109.919 24.364-59.168a174.173 174.173 0 0 0 40.818 14.8 8.048 8.048 0 0 0 .452.8l16 24a8 8 0 0 0 6.656 3.568h8v16zm112.29 0v-16h8a8 8 0 0 0 6.656-3.562l16-24a8.048 8.048 0 0 0 .452-.8 174.19 174.19 0 0 0 40.818-14.8l24.364 59.162zm79.746-82.2-18.781-45.612a112.933 112.933 0 0 0 21.386-22.084l14.382 3.6 3.258 1.881-2.647 3.971a8 8 0 0 0 0 8.876l14.429 21.643a159.748 159.748 0 0 1 -32.027 27.725zm67.973-37.8h-23.438l-5.333-8h34.1z"/><path d="m456 336h16v16h-16z"/><path d="m456 384h16v16h-16z"/><path d="m432 360h16v16h-16z"/><path d="m480 360h16v16h-16z"/><path d="m40 32h16v16h-16z"/><path d="m40 64h16v16h-16z"/><path d="m24 48h16v16h-16z"/><path d="m56 48h16v16h-16z"/></svg>