<?xml version="1.0" encoding="iso-8859-1"?>
<!-- Generator: Adobe Illustrator 19.0.0, SVG Export Plug-In . SVG Version: 6.00 Build 0)  -->
<svg version="1.1" id="Capa_1" xmlns="http://www.w3.org/2000/svg" xmlns:xlink="http://www.w3.org/1999/xlink" x="0px" y="0px"
	 viewBox="0 0 496 496" style="enable-background:new 0 0 496 496;" xml:space="preserve">
<g>
	<g>
		<path d="M443.784,160c2.656-10.248,4.216-20.936,4.216-32C448,57.424,390.576,0,320,0S192,57.424,192,128
			c0,11.064,1.56,21.752,4.216,32H160v-48H40c-22.056,0-40,17.944-40,40v304c0,22.056,17.944,40,40,40h456V160H443.784z M320,16
			c61.76,0,112,50.24,112,112s-50.24,112-112,112s-112-50.24-112-112S258.24,16,320,16z M16,152c0-13.232,10.768-24,24-24h104v288
			H40c-9,0-17.312,2.984-24,8.016V152z M480,480H40c-13.232,0-24-10.768-24-24s10.768-24,24-24h120V264h8c22.056,0,40,17.944,40,40
			v96c0,30.872,25.12,56,56,56s56-25.128,56-56v-48c0-22.056,17.944-40,40-40c22.056,0,40,17.944,40,40v16h16v-16
			c0-30.872-25.12-56-56-56s-56,25.128-56,56v48c0,22.056-17.944,40-40,40c-22.056,0-40-17.944-40-40v-96c0-30.872-25.12-56-56-56
			h-8v-72h41.424C220.456,222.848,266.4,256,320,256c53.6,0,99.544-33.152,118.576-80H480V480z"/>
	</g>
</g>
<g>
	<g>
		<path d="M320,32c-52.936,0-96,43.064-96,96c0,52.936,43.064,96,96,96c52.936,0,96-43.064,96-96C416,75.064,372.936,32,320,32z
			 M328,207.592V192h-16v15.592c-37.736-3.768-67.832-33.856-71.592-71.592H256v-16h-15.592
			c3.76-37.736,33.856-67.832,71.592-71.592V64h16V48.408c37.736,3.768,67.832,33.856,71.592,71.592H384v16h15.592
			C395.824,173.736,365.736,203.832,328,207.592z"/>
	</g>
</g>
<g>
	<g>
		<path d="M342.32,105.672l-66.976-22.32l22.328,66.976l66.976,22.32L342.32,105.672z M300.648,108.648l20.544,6.848l-13.696,13.696
			L300.648,108.648z M318.808,140.504l13.696-13.696l6.848,20.544L318.808,140.504z"/>
	</g>
</g>
<g>
	<g>
		<polygon points="437.656,389.656 426.344,378.344 408,396.688 389.656,378.344 378.344,389.656 396.688,408 378.344,426.344 
			389.656,437.656 408,419.312 426.344,437.656 437.656,426.344 419.312,408 		"/>
	</g>
</g>
<g>
</g>
<g>
</g>
<g>
</g>
<g>
</g>
<g>
</g>
<g>
</g>
<g>
</g>
<g>
</g>
<g>
</g>
<g>
</g>
<g>
</g>
<g>
</g>
<g>
</g>
<g>
</g>
<g>
</g>
</svg>
