<svg height="512" viewBox="0 0 60 60" width="512" xmlns="http://www.w3.org/2000/svg"><path id="Shape" d="m2 61h56c1.1045695 0 2-.8954305 2-2v-53c0-.55228475-.4477153-1-1-1s-1 .44771525-1 1v2h-2c0-2.55.08-3.2-1.15-5.18-.1898427-.29696988-.3569847-.60785407-.5-.93-.2322887-.53907194-.7630106-.88827842-1.35-.88827842s-1.1177113.34920648-1.35.88827842c-.1489883.31594954-.3159276.62311793-.5.92-1.24 1.99-1.15 2.61-1.15 5.19h-2v-2c0-.55228475-.4477153-1-1-1s-1 .44771525-1 1v17h-2c.1813482-1.1913102-.3306347-2.3820585-1.32-3.07-.3882649-.324789-.7049359-.7265867-.93-1.18-.1841356-.3468884-.504604-.6012617-.8842313-.701863-.3796273-.1006012-.7840108-.0383136-1.1157687.171863-2.14-3.33-4.54-3.43-7.4-8.82-.2985592-.53878177-.7761193-.95620469-1.35-1.18v-1.4c1.3775467-.4870363 2.2038721-1.89566623 1.9567957-3.33573306s-1.4956868-2.49269406-2.9567957-2.49269406-2.7097193 1.05262723-2.9567957 2.49269406.579249 2.84869676 1.9567957 3.33573306v1.4c-2 .81-.95 2.36-5.71 6.68-1.1404593.9711493-2.1490116 2.0872806-3 3.32-.3317579-.2101766-.7361414-.2724642-1.1157687-.171863-.3796273.1006013-.7000957.3549746-.8842313.701863-.2216044.4527523-.5389216.8519578-.93 1.17-1.0023362.6843561-1.5294936 1.8782125-1.36 3.08h-2v-17c0-.55228475-.4477153-1-1-1s-1 .44771525-1 1v2h-2c0-2.55.08-3.2-1.15-5.18-.18984271-.29696988-.35698475-.60785407-.5-.93-.23228873-.53907194-.76301055-.88827842-1.35-.88827842s-1.11771127.34920648-1.35.88827842c-.14898826.31594954-.31592761.62311793-.5.92-1.24 1.99-1.15 2.61-1.15 5.19h-2v-2c0-.55228475-.44771525-1-1-1s-1 .44771525-1 1v53c0 1.1045695.8954305 2 2 2zm56-28h-56v-2h56zm-6 6h2v3h-2zm2-2h-10v-2h10zm-10 2h2v3h-2zm-11-1.7v.7h-6v-.7l1.54-2.3h2.92zm0 7.7h-6v-5h6zm-19-6h2v3h-2zm2-2h-10v-2h10zm-10 2h2v3h-2zm-4 20v-11h2v11zm19-11v11h-15v-11zm6 11c0-3.78-.34-4.68 3-7.59 3.34 2.93 3 3.88 3 7.59zm10-11v11h-2c0-4 .32-5.6-3.67-9.09-.7581689-.6750844-1.9018311-.6750844-2.66 0-3.89 3.4-3.67 4.91-3.67 9.09h-2v-11c0-1.1045695-.8954305-2-2-2h-19v-11h2v8c0 .5522847.44771525 1 1 1h4c.55228475 0 1-.4477153 1-1v-4h2v4c0 .5522847.4477153 1 1 1h4c.5522847 0 1-.4477153 1-1v-8h8.13c-.72 1.09-1.13 1.53-1.13 2.3v7.7c0 1.1045695.8954305 2 2 2h6c1.1045695 0 2-.8954305 2-2v-6c0-2.59.17-2-1.13-4h8.13v8c0 .5522847.4477153 1 1 1h4c.5522847 0 1-.4477153 1-1v-4h2v4c0 .5522847.4477153 1 1 1h4c.5522847 0 1-.4477153 1-1v-8h2v11h-19c-1.1045695 0-2 .8954305-2 2zm2 0h15v11h-15zm17 11v-11h2v11zm2-41h-2c0-2.93.29-3.79-2-5.66-.5603555-.4515416-1.3596445-.4515416-1.92 0-2.33 1.87-2 2.74-2 5.66h-2.08v-8h10zm-4 0h-2v-2.16c0-.51.07-.9 1-1.7.93.8 1 1.19 1 1.7zm-1-14.38c1 1.7 1 1.38 1 4.38h-2c0-3 0-2.6 1-4.38zm-11.66 17.79c.75.68.66.67.66 1.59h-3v-.62c0-.64.84-1 1.48-1.84.07-.1-.16-.06.86.87zm-11.34-18.41c.5522847 0 1 .44771525 1 1s-.4477153 1-1 1-1-.44771525-1-1 .4477153-1 1-1zm-5.36 13.38c1.9823132-1.6539967 3.6055491-3.6958028 4.77-6 .1055175-.2310728.3359757-.3795035.59-.38.74 0 .44.58 2.52 3.44 1.87 2.56 4.66 4 5.87 6.42-1.0312816.6900365-1.5725028 1.9126513-1.39 3.14h-3c0-1.37 0-2-1.58-3.13-.4616401-.3094931-.8505955-.715508-1.14-1.19-.2888128-.4229132-.7678785-.6758719-1.28-.6758719s-.9911872.2529587-1.28.6758719c-.2895379.4716557-.6786057.8743751-1.14 1.18-1.52 1.14-1.58 1.72-1.58 3.14h-3c.1799887-1.2270071-.3606616-2.448332-1.39-3.14.7910318-1.3338415 1.8176838-2.5129665 3.03-3.48zm6.57 5.09c1 .72.79.7.79 1.53h-4v-.62c0-.58 1.09-.91 2-2.06.3427039.4424558.7507014.8302221 1.21 1.15zm-13.21.91c0-.64.84-1 1.48-1.84.62.85 1.48 1.2 1.48 1.83v.63h-2.96zm29 2.62c.5522847 0 1-.4477153 1-1v-4h10v9h-56v-9h10v4c0 .5522847.4477153 1 1 1zm-39-7h-2v-2.16c0-.51.07-.9 1-1.7.93.8 1 1.19 1 1.7zm4 0h-2c0-2.93.29-3.79-2-5.66-.56035553-.4515416-1.35964447-.4515416-1.92 0-2.37 1.87-2.08 2.74-2.08 5.66h-2v-8h10zm-5-14.38c1 1.7 1 1.38 1 4.38h-2c0-3 0-2.6 1-4.38z" transform="translate(0 -1)"/></svg>