<svg height="512pt" viewBox="-49 0 512 512" width="512pt" xmlns="http://www.w3.org/2000/svg"><path d="m207.464844 64.714844c-78.714844 0-142.75 64.035156-142.75 142.75s64.035156 142.75 142.75 142.75 142.75-64.035156 142.75-142.75-64.035156-142.75-142.75-142.75zm0 270.273437c-70.316406 0-127.523438-57.207031-127.523438-127.523437s57.207032-127.523438 127.523438-127.523438 127.523437 57.207032 127.523437 127.523438-57.207031 127.523437-127.523437 127.523437zm0 0"/><path d="m207.464844 0c-114.398438 0-207.464844 93.066406-207.464844 207.464844 0 49.15625 17.503906 96.832031 49.285156 134.238281 30.480469 35.882813 72.328125 60.402344 118.222656 69.371094l39.988282 100.925781h10.886718l40.222657-103.429688c43.296875-10.992187 82.460937-36.167968 110.632812-71.207031 29.464844-36.648437 45.691407-82.78125 45.691407-129.898437 0-114.398438-93.070313-207.464844-207.464844-207.464844zm149.90625 327.820312c-26.898438 33.453126-64.597656 57.207032-106.148438 66.875l-3.914062.914063-34.453125 88.585937-34.316407-86.617187-4.203124-.726563c-44.046876-7.648437-84.335938-30.734374-113.449219-65.003906-29.445313-34.660156-45.660157-78.835937-45.660157-124.382812 0-106 86.238282-192.238282 192.238282-192.238282s192.238281 86.238282 192.238281 192.238282c0 44.292968-14.636719 85.910156-42.332031 120.355468zm0 0"/><path d="m112.878906 168.472656 7.464844 13.269532 87.628906-49.289063 87.628906 49.289063 7.460938-13.269532-95.089844-53.492187zm0 0"/><path d="m131.839844 197.949219h7.613281v76.132812h-7.613281v15.226563h152.265625v-15.226563h-7.613281v-76.132812h7.613281v-15.226563h-152.265625zm22.839844 0h15.226562v76.132812h-15.226562zm45.679687 76.132812h-15.226563v-76.132812h15.226563zm15.226563-76.132812h15.226562v76.132812h-15.226562zm45.679687 76.132812h-15.226563v-76.132812h15.226563zm0 0"/><path d="m185.132812 152.269531h45.679688v15.226563h-45.679688zm0 0"/></svg>