<?xml version="1.0"?>
<svg xmlns="http://www.w3.org/2000/svg" viewBox="0 0 512 512" width="512" height="512"><g id="outline"><path d="M375.421,375.988c17.149,0,33.056-4.394,45.71-13.384,4.13-2.934,8.939-6.312,13.756-9.279,2.932-1.805,5.837-3.739,8.633-5.748,23.045-16.554,40.107-38.691,48.043-62.332,8.248-24.569,5.762-47.884-7-65.65h0a62.871,62.871,0,0,0-23.369-19.57c12.17-34.5,6.564-68.327-15.068-87.76-10.2-9.165-23.152-14.6-37.823-15.929,0-.112,0-.224,0-.336,0-20.861-5.77-40.574-16.246-55.506C380.976,24.7,365.965,16,349.79,16S318.6,24.7,307.522,40.494C297.045,55.426,291.276,75.139,291.276,96a108.14,108.14,0,0,0,2.519,23.408A63.056,63.056,0,0,0,269.131,139.6c-14.512,20.2-15.539,48.127-3.048,75.653a60.067,60.067,0,0,0-6.039,7.142,63.3,63.3,0,0,0-11.654,33.735A97.563,97.563,0,0,0,183.9,284.783l-6.7,6.7a145.428,145.428,0,0,0-75.291-53.414L116.944,208H120a8,8,0,0,0,0-16h-4.687L85.657,162.343A8,8,0,0,0,80,160v-8a8,8,0,0,0-16,0v8a8,8,0,0,0-5.657,2.343L28.687,192H24a8,8,0,0,0,0,16h3.056l12,24H16v16H47.056l1.4,2.791,5.441,21.762A32.052,32.052,0,0,0,48,272a24,24,0,0,0,0,48h8V304H48a8,8,0,0,1,0-16,16.019,16.019,0,0,1,16,16v32H40a8,8,0,0,0-8,8v32a8,8,0,0,0,8,8H64v33.376A24.039,24.039,0,0,0,48,440v48a8,8,0,0,0,8,8H88a8,8,0,0,0,8-8V440a24.039,24.039,0,0,0-16-22.624V384H96a8,8,0,0,0,5.657-2.343l16-16a8,8,0,0,0,0-11.314l-16-16A8,8,0,0,0,96,336H80V304a16.019,16.019,0,0,1,16-16,8,8,0,0,1,0,16H88v16h8a24,24,0,0,0,0-48,32.052,32.052,0,0,0-5.892.553l4.953-19.81a129.066,129.066,0,0,1,74.154,55.5,8,8,0,0,0,5.879,3.71A8.119,8.119,0,0,0,176,312a8,8,0,0,0,5.657-2.343l13.56-13.56a81.669,81.669,0,0,1,53.947-23.988,93.735,93.735,0,0,0,3.88,15.931c7.936,23.642,25,45.778,48.044,62.332A137.991,137.991,0,0,0,352.3,373.467V424H344a8,8,0,0,0,0,16h8.3v8H328a24.028,24.028,0,0,0-24-24H280V408h8a24,24,0,0,0,0-48H144a24,24,0,0,0,0,48h8v16H128a24.028,24.028,0,0,0-24,24v16a8,8,0,0,0,8,8h8v24h16V472h16v24h16V472h96v24h16V472h16v24h16V472h3.754l4.485,17.94A8,8,0,0,0,328,496h24a7.973,7.973,0,0,0,4.153-1.17A7.989,7.989,0,0,0,368.3,488V472H384v16a8,8,0,0,0,16,0V472h16v16a8,8,0,0,0,16,0V472h16v16a8,8,0,0,0,16,0V472h16v16a8,8,0,0,0,16,0V400a8,8,0,0,0-16,0v24H464V400a8,8,0,0,0-16,0v24H432V400a8,8,0,0,0-16,0v24H400V400a8,8,0,0,0-16,0v24H368.3V375.716C370.694,375.88,373.072,375.988,375.421,375.988ZM80,480H64V440a8,8,0,0,1,16,0ZM48,368V352H64v16Zm44.687-16,8,8-8,8H80V352ZM70.246,272l-4-16H77.754l-4,16Zm12.81-32H60.944l-16-32H99.056ZM67.313,176h9.374l16,16H51.313ZM296,384a8.009,8.009,0,0,1-8,8h-8V376h8A8.009,8.009,0,0,1,296,384Zm-32,8H168V376h96Zm-120,0a8,8,0,0,1,0-16h8v16Zm24,16h96v16H168Zm144,48H120v-8a8.009,8.009,0,0,1,8-8H304a8.009,8.009,0,0,1,8,8Zm33.754,24H334.246l-4-16h19.508ZM480,440v16H464V440Zm-32,0v16H432V440Zm-32,0v16H400V440Zm-32,0v16H368.3V440ZM310.422,337.377c-20.342-14.612-35.333-33.942-42.21-54.429-6.565-19.558-4.851-37.75,4.827-51.223a45,45,0,0,1,7.939-8.441,8,8,0,0,0,2-9.873c-12.428-23.819-12.748-47.925-.855-64.481,5.668-7.89,13.674-13.68,23.8-17.206a8,8,0,0,0,5.034-9.843A90.384,90.384,0,0,1,307.276,96c0-17.6,4.739-34.052,13.344-46.317C328.62,38.28,338.979,32,349.79,32s21.169,6.28,29.169,17.683C387.565,61.948,392.3,78.4,392.3,96c0,2.394-.1,4.883-.3,7.4a8,8,0,0,0,8.09,8.62c14.013-.193,26.267,4,35.336,12.147,18.016,16.186,21.21,46.425,8.136,77.04a8,8,0,0,0,4.663,10.674c9.9,3.542,17.753,9.278,23.335,17.048,20.588,28.662,3.818,76.057-37.383,105.654-2.49,1.788-5.077,3.51-7.687,5.118-5.231,3.221-10.3,6.778-14.633,9.86-11.158,7.927-26.561,11.486-43.561,10.128V275.613a168.153,168.153,0,0,0,56-125.369V144a8,8,0,0,0-16,0v6.244a152.154,152.154,0,0,1-40,102.89V112a8,8,0,0,0-16,0v93.205A72.352,72.352,0,0,1,336.3,160a8,8,0,0,0-16,0,88.451,88.451,0,0,0,32,67.868V357.047A124,124,0,0,1,310.422,337.377Z"/><path d="M324.588,296.971A68.8,68.8,0,0,1,304.3,248a8,8,0,0,0-16,0,84.7,84.7,0,0,0,24.97,60.284l9.373,9.373a8,8,0,1,0,11.313-11.314Z"/><rect x="192" y="16" width="16" height="16"/><rect x="146.745" y="34.745" width="16" height="16" transform="translate(15.098 121.941) rotate(-45)"/><rect x="192" y="144" width="16" height="16"/><rect x="237.255" y="125.255" width="16" height="16" transform="translate(-22.392 212.451) rotate(-45)"/><rect x="256" y="80" width="16" height="16"/><rect x="237.255" y="34.745" width="16" height="16" transform="translate(41.608 185.941) rotate(-45)"/><path d="M108,144h56a28.038,28.038,0,0,0,25.873-17.307,40,40,0,1,0-27.351-52.661A40.036,40.036,0,0,0,98.67,89.606,28,28,0,0,0,108,144Zm92-80a24,24,0,1,1-8.571,46.412A27.716,27.716,0,0,0,176.173,90.8,24.366,24.366,0,0,1,176,88,24.028,24.028,0,0,1,200,64Zm-93.837,40.164a8,8,0,0,0,6.549-5.977,24,24,0,0,1,46.576,0,8,8,0,0,0,6.549,5.977A11.988,11.988,0,0,1,164,128H108a11.988,11.988,0,0,1-1.837-23.836Z"/></g></svg>
