<?xml version="1.0" encoding="iso-8859-1"?>
<!-- Generator: Adobe Illustrator 21.0.0, SVG Export Plug-In . SVG Version: 6.00 Build 0)  -->
<svg xmlns="http://www.w3.org/2000/svg" xmlns:xlink="http://www.w3.org/1999/xlink" version="1.1" id="Capa_1" x="0px" y="0px" viewBox="0 0 512 512" style="enable-background:new 0 0 512 512;" xml:space="preserve" width="512" height="512">
<g>
	<path style="fill-rule:evenodd;clip-rule:evenodd;" d="M367.801,270.146h-51.824c6.38-30.984,27.479-55.433,53.945-61.178   c2.938-0.638,5.432-2.563,6.794-5.242c1.361-2.679,1.445-5.829,0.229-8.578c-10.213-23.074-49.616-32.837-73.102-36.672v-11.173   c11.841-9.281,18.941-23.148,19.438-38.272c8.77-6.138,14.302-17.332,14.302-29.928c0-12.597-5.531-23.79-14.302-29.928   C322.379,21.907,299.914,0,272.43,0H239.57c-27.484,0-49.948,21.907-50.85,49.175c-8.771,6.138-14.303,17.331-14.303,29.928   s5.532,23.79,14.302,29.928c0.497,15.124,7.597,28.992,19.438,38.272v11.173c-23.486,3.835-62.891,13.599-73.103,36.672   c-1.217,2.749-1.132,5.898,0.229,8.578c1.361,2.68,3.856,4.604,6.793,5.242c26.467,5.745,47.566,30.193,53.945,61.178h-51.824   c-5.523,0-10,4.477-10,10V502c0,5.523,4.477,10,10,10h223.602c5.522,0,10-4.477,10-10V280.146   C377.801,274.623,373.323,270.146,367.801,270.146z M195.017,220.935c-9.151-11.638-20.597-20.675-33.171-26.357   c10.448-6.98,29.767-13.971,57.583-17.537c4.99-0.639,8.729-4.887,8.729-9.918v-25.015c0-3.462-1.791-6.678-4.734-8.501   c-9.225-5.714-14.732-15.537-14.732-26.276v-4.302c0-4.243-2.678-8.024-6.68-9.433c-3.682-1.296-7.594-6.815-7.594-14.492   c0-7.677,3.913-13.196,7.594-14.492c4.002-1.408,6.68-5.189,6.68-9.433v-4.301C208.692,33.852,222.544,20,239.57,20h32.859   c17.026,0,30.879,13.852,30.879,30.878v4.301c0,4.243,2.678,8.024,6.68,9.433c3.682,1.296,7.594,6.815,7.594,14.492   c0,7.677-3.912,13.196-7.594,14.492c-4.002,1.409-6.68,5.189-6.68,9.433v4.302c0,10.739-5.507,20.562-14.732,26.276   c-2.942,1.823-4.733,5.039-4.733,8.501v25.015c0,5.031,3.738,9.279,8.728,9.919c27.816,3.564,47.135,10.555,57.583,17.536   c-12.575,5.683-24.02,14.719-33.171,26.357c-10.997,13.985-18.3,30.851-21.372,49.211h-79.223   C213.316,251.785,206.014,234.92,195.017,220.935z M357.801,492H154.199V290.146h203.602V492z"/>
	<path style="fill-rule:evenodd;clip-rule:evenodd;" d="M286,322.226c0,5.523,4.478,10,10,10h19.721V449.92H196.279V332.226H216   c5.523,0,10-4.477,10-10c0-5.523-4.477-10-10-10h-29.721c-5.523,0-10,4.477-10,10V459.92c0,5.523,4.477,10,10,10h139.441   c5.522,0,10-4.477,10-10V322.226c0-5.523-4.478-10-10-10H296C290.478,312.226,286,316.703,286,322.226z"/>
	<path style="fill-rule:evenodd;clip-rule:evenodd;" d="M256,332.226c5.508,0,10-4.493,10-10.001c0-5.508-4.492-10-10-10   c-5.508,0-10,4.492-10,10C246,327.732,250.492,332.226,256,332.226z"/>
</g>















</svg>
